<?xml version="1.0" encoding="utf-8"?>
<svg version="1.1" xmlns:xlink="http://www.w3.org/1999/xlink" width="20px" height="20px" viewBox="803 1584  20 20" xmlns="http://www.w3.org/2000/svg">
  <path d="M 803.5 1586  A 1.5 1.5 0 0 1 805 1584.5 L 821 1584.5  A 1.5 1.5 0 0 1 822.5 1586 L 822.5 1602  A 1.5 1.5 0 0 1 821 1603.5 L 805 1603.5  A 1.5 1.5 0 0 1 803.5 1602 L 803.5 1586  Z " fill-rule="nonzero" fill="#ffffff" stroke="none" />
  <path d="M 803.5 1586  A 1.5 1.5 0 0 1 805 1584.5 L 821 1584.5  A 1.5 1.5 0 0 1 822.5 1586 L 822.5 1602  A 1.5 1.5 0 0 1 821 1603.5 L 805 1603.5  A 1.5 1.5 0 0 1 803.5 1602 L 803.5 1586  Z " stroke-width="1" stroke="#d7d7d7" fill="none" />
</svg>