<?xml version="1.0" encoding="utf-8"?>
<svg version="1.1" xmlns:xlink="http://www.w3.org/1999/xlink" width="20px" height="20px" viewBox="803 1468  20 20" xmlns="http://www.w3.org/2000/svg">
  <path d="M 803.5 1470  A 1.5 1.5 0 0 1 805 1468.5 L 821 1468.5  A 1.5 1.5 0 0 1 822.5 1470 L 822.5 1486  A 1.5 1.5 0 0 1 821 1487.5 L 805 1487.5  A 1.5 1.5 0 0 1 803.5 1486 L 803.5 1470  Z " fill-rule="nonzero" fill="#ffffff" stroke="none" />
  <path d="M 803.5 1470  A 1.5 1.5 0 0 1 805 1468.5 L 821 1468.5  A 1.5 1.5 0 0 1 822.5 1470 L 822.5 1486  A 1.5 1.5 0 0 1 821 1487.5 L 805 1487.5  A 1.5 1.5 0 0 1 803.5 1486 L 803.5 1470  Z " stroke-width="1" stroke="#d7d7d7" fill="none" />
  <path d="M 807.285714285714 1478  L 811.571428571429 1482.28571428571  " stroke-width="4.28571428571429" stroke="#d7d7d7" fill="none" />
  <path d="M 811.571428571429 1482.28571428571  L 818.714285714286 1472.28571428571  " stroke-width="4.28571428571429" stroke="#d7d7d7" fill="none" />
</svg>