<svg xmlns="http://www.w3.org/2000/svg" width="50" height="14" viewBox="0 0 50 14"><g fill="none" fill-rule="evenodd"><g fill="#3f4040"><path d="M6.783 7.915v2.741c-.866.12-2.101.146-2.521.146-1.998 0-2.09-.542-2.09-1.58 0-1.014.345-1.307 1.54-1.307zM4.163 1c-.623 0-1.475.017-2.546.147l-.056.012C1.194 1.263 1 1.516 1 1.89v.432c0 .445.287.732.733.732h2.43c1.886 0 2.62.476 2.62 1.698v1.13h-3.07C1.145 5.881 0 6.911 0 9.221c0 2.568 1.184 3.615 4.085 3.615 1.159 0 3.295-.09 4.09-.334.504-.14.76-.472.76-.987v-6.88c0-2.447-1.561-3.636-4.771-3.636M30.697 1.138h-.686a.71.71 0 0 0-.733.732v8.913h-2.717c-1.659 0-2.345 0-2.345-2.796V1.87a.71.71 0 0 0-.733-.732h-.667c-.429 0-.752.315-.752.732v6.117c0 4.1 1.56 4.85 4.633 4.85 1.101 0 2.608 0 4.057-.205l.04-.008c.525-.132.635-.473.635-.736V1.87a.71.71 0 0 0-.732-.732M39.253 1.166l-.062-.017c-.411-.086-1.525-.15-2.076-.15-2.55 0-3.085 1.349-3.085 2.479v8.527c0 .425.308.733.733.733h.686a.71.71 0 0 0 .733-.733V3.634c0-.272 0-.58 1.11-.58l1.688-.003a.7.7 0 0 0 .553-.161.73.73 0 0 0 .256-.57v-.43c0-.341-.201-.611-.536-.724M45.444 1c-2.024 0-3.174.399-3.843 1.335-.69.966-.83 2.466-.83 4.574 0 4.099.675 5.927 4.673 5.927.472 0 2.083-.01 3.032-.125a.73.73 0 0 0 .641-.725v-.451a.735.735 0 0 0-.752-.752h-2.92c-2.114 0-2.467-.47-2.522-3.345V6.48c.018-2.946.372-3.426 2.521-3.426 1.957 0 2.317.406 2.393 2.867h-3.282v2.073h4.457c.451 0 .988-.161.988-.93V6.49c-.063-4.207-1.127-5.49-4.556-5.49"/></g><path fill="#74bb11" d="M19.934 1.496c-.11-.237-.346-.378-.629-.378h-.882c-.305 0-.543.128-.66.349L16.4 3.461l1.314 1.802 2.101-3.022c.27-.328.173-.63.12-.745"/><path fill="#009cd9" d="m13.03 1.443-.004-.004a.78.78 0 0 0-.66-.321h-.863a.67.67 0 0 0-.618.35c-.12.228-.098.499.068.747l3.14 4.36-3.622 5.063c-.157.237-.178.503-.056.73a.67.67 0 0 0 .617.35h.882a.72.72 0 0 0 .636-.36l4.172-5.761z"/><path fill="#eb2084" d="m20.371 11.698-2.687-3.7-1.296 1.794 2.11 2.822.085.038a.8.8 0 0 0 .31.067h.863a.69.69 0 0 0 .601-.32.7.7 0 0 0 .014-.701"/></g></svg>