<svg xmlns="http://www.w3.org/2000/svg" width="52" height="12" viewBox="0 0 52 12"><title>axure_logo</title><g fill="#3d4557" fill-rule="evenodd"><path d="m23.634.211-4.22 5.913c1.179 1.641 2.993 4.2 4.079 5.67h-2.97L17.975 8.2c-.849 1.231-1.697 2.389-2.546 3.595h-2.923l4.007-5.67c-1.32-1.883-2.852-3.982-4.172-5.914h2.946l2.688 3.838L20.663.211zM11.614 6.031v5.827h-2.37v-1.402c-.751.967-2.182 1.548-3.449 1.548C2.605 12.004 0 9.319 0 6.03S2.605.06 5.795.06c1.267 0 2.698.58 3.448 1.547V.228h2.37zm-5.819 3.53c1.901 0 3.448-1.573 3.448-3.53 0-1.959-1.547-3.53-3.448-3.53-1.9 0-3.448 1.571-3.448 3.53 0 1.957 1.548 3.53 3.448 3.53M33.902 11.84h-2.354v-.97c-.517.8-1.694 1.139-2.541 1.139-3.107 0-4.918-2.277-4.918-5.087V.212h2.352v6.71c0 1.478 1.107 2.64 2.566 2.64 1.388 0 2.47-1.139 2.541-2.567V.21h2.354zM37.47 5.23v6.565H35.1V.21h2.37v1.062C37.82.597 39.298.211 40.306.211h.445v2.462h-.445c-1.032 0-2.838.482-2.838 2.558M50.931 9.288c-1.34 1.842-3.176 2.568-4.775 2.568-3.152 0-5.715-2.64-5.715-5.885 0-3.271 2.563-5.912 5.715-5.912 3.67 0 6.444 3.586 5.622 7.268H42.98c.423 1.308 1.834 2.277 3.175 2.277 1.011 0 1.552-.34 2.165-.872zM42.91 4.977h6.47c-.425-1.405-1.718-2.495-3.224-2.495-1.458 0-2.775 1.138-3.246 2.495"/></g></svg>