<svg xmlns="http://www.w3.org/2000/svg" width="20" height="20" viewBox="0 0 20 20"><g fill="none" fill-rule="evenodd"><rect width="18" height="18" x="1" y="1" stroke="#e1e0e0" stroke-width="2" rx="4"/><rect width="19" height="19" x=".5" y=".5" stroke="#979797" rx="4"/><path fill="#666" d="M9 5V4L4.448 6.5v1L9 9.5v-1Q5.6 7.02 5.5 7q.103-.025 3.5-2m-3.708 9.262a.68.68 0 0 1 .195-.477.7.7 0 0 1 .225-.147.8.8 0 0 1 .288-.054q.18 0 .321.066a.64.64 0 0 1 .234.183.8.8 0 0 1 .141.27q.048.153.048.333 0 .27-.078.561a3 3 0 0 1-.222.576 3.4 3.4 0 0 1-.84 1.053l-.18-.174a.22.22 0 0 1-.078-.168q0-.078.084-.162.06-.066.153-.177c.093-.111.125-.159.189-.255s.123-.202.177-.318q.081-.174.117-.372h-.078a.7.7 0 0 1-.282-.054.65.65 0 0 1-.219-.153.7.7 0 0 1-.144-.234.8.8 0 0 1-.051-.297"/></g></svg>