<?xml version="1.0" encoding="utf-8"?>
<svg version="1.1" xmlns:xlink="http://www.w3.org/1999/xlink" width="58px" height="23px" xmlns="http://www.w3.org/2000/svg">
  <g transform="matrix(1 0 0 1 -830 -532 )">
    <path d="M 830 532  L 888 532  L 888 555  L 830 555  L 830 532  " fill-rule="nonzero" fill="#cccccc" stroke="none" />
    <path d="M 832 534  L 886 534  L 886 553  L 832 553  L 832 534  " fill-rule="nonzero" fill="#ffffff" stroke="none" />
    <path d="M 861.885 538.9  C 860.919 538.9  860.16 538.141  860.16 537.175  C 860.16 536.209  860.919 535.45  861.885 535.45  C 862.851 535.45  863.61 536.209  863.61 537.175  C 863.61 538.141  862.851 538.9  861.885 538.9  " fill-rule="nonzero" fill="#cccccc" stroke="none" />
    <path d="M 833 553  L 833 543.1  L 846.25 538.6  L 864.8 548.71724137931  L 875.4 541.3  L 886 548.71724137931  L 886 553  L 833 553  " fill-rule="nonzero" fill="#169bd5" stroke="none" />
  </g>
</svg>