<?xml version="1.0" encoding="utf-8"?>
<svg version="1.1" xmlns:xlink="http://www.w3.org/1999/xlink" width="12px" height="12px" viewBox="293 531  12 12" xmlns="http://www.w3.org/2000/svg">
  <path d="M 299 531  C 302.36 531  305 533.64  305 537  C 305 540.36  302.36 543  299 543  C 295.64 543  293 540.36  293 537  C 293 533.64  295.64 531  299 531  Z " fill-rule="nonzero" fill="#ffffff" stroke="none" />
  <path d="M 299 531.5  C 302.08 531.5  304.5 533.92  304.5 537  C 304.5 540.08  302.08 542.5  299 542.5  C 295.92 542.5  293.5 540.08  293.5 537  C 293.5 533.92  295.92 531.5  299 531.5  Z " stroke-width="1" stroke="#797979" fill="none" />
  <path d="M 299 540  C 297.32 540  296 538.68  296 537  C 296 535.32  297.32 534  299 534  C 300.68 534  302 535.32  302 537  C 302 538.68  300.68 540  299 540  " fill-rule="nonzero" fill="#797979" stroke="none" />
</svg>