<?xml version="1.0" encoding="utf-8"?>
<svg version="1.1" xmlns:xlink="http://www.w3.org/1999/xlink" width="12px" height="12px" viewBox="220 531  12 12" xmlns="http://www.w3.org/2000/svg">
  <path d="M 226 531  C 229.36 531  232 533.64  232 537  C 232 540.36  229.36 543  226 543  C 222.64 543  220 540.36  220 537  C 220 533.64  222.64 531  226 531  Z " fill-rule="nonzero" fill="#ffffff" stroke="none" />
  <path d="M 226 531.5  C 229.08 531.5  231.5 533.92  231.5 537  C 231.5 540.08  229.08 542.5  226 542.5  C 222.92 542.5  220.5 540.08  220.5 537  C 220.5 533.92  222.92 531.5  226 531.5  Z " stroke-width="1" stroke="#797979" fill="none" />
  <path d="M 226 540  C 224.32 540  223 538.68  223 537  C 223 535.32  224.32 534  226 534  C 227.68 534  229 535.32  229 537  C 229 538.68  227.68 540  226 540  " fill-rule="nonzero" fill="#797979" stroke="none" />
</svg>