<?xml version="1.0" encoding="utf-8"?>
<svg version="1.1" xmlns:xlink="http://www.w3.org/1999/xlink" width="10px" height="10px" xmlns="http://www.w3.org/2000/svg">
  <g transform="matrix(1 0 0 1 -25 -1565 )">
    <path d="M 30 1566  C 32.24 1566  34 1567.76  34 1570  C 34 1572.24  32.24 1574  30 1574  C 27.76 1574  26 1572.24  26 1570  C 26 1567.76  27.76 1566  30 1566  Z " fill-rule="nonzero" fill="#ffffff" stroke="none" />
    <path d="M 30 1566  C 32.24 1566  34 1567.76  34 1570  C 34 1572.24  32.24 1574  30 1574  C 27.76 1574  26 1572.24  26 1570  C 26 1567.76  27.76 1566  30 1566  Z " stroke-width="2" stroke="#3772f9" fill="none" />
  </g>
</svg>