<?xml version="1.0" encoding="utf-8"?>
<svg version="1.1" xmlns:xlink="http://www.w3.org/1999/xlink" width="11px" height="6px" xmlns="http://www.w3.org/2000/svg">
  <defs>
    <mask fill="white" id="clip39">
      <path d="M 10.5823351965332 0.93293137319705  C 10.7499139123535 0.76283171123805  10.7486435009765 0.488946377704394  10.5801870544434 0.320614480168217  C 10.4113148449707 0.152724510216274  10.1397472558594 0.15358513521636  9.97260742553715 0.323219585336517  L 5.57047314086914 4.79681959435089  L 1.10687407348631 0.342269445613056  C 0.938001864013651 0.173960805288459  0.666434274902366 0.175240100661028  0.49885557250978 0.344874550781185  C 0.331715742187514 0.51492768479568  0.332986153564456 0.788813018329336  0.501442586669934 0.957144929387027  L 5.24561760131837 5.69123257662255  C 5.25291668945312 5.69858270733181  5.26236391967777 5.70032720102171  5.26968610351566 5.70723539062504  C 5.27139538696292 5.70895662710336  5.27183424560549 5.71111979116591  5.27354352905275 5.71286428485581  C 5.35732132568363 5.79636732872603  5.46690001708982 5.83835144981964  5.57603983642581 5.83835144981964  C 5.68647316284182 5.83835144981964  5.79732225219726 5.79550671724763  5.88112315795896 5.71028243689909  L 10.5823351965332 0.93293137319705  Z " fill-rule="evenodd" />
    </mask>
  </defs>
  <g transform="matrix(1 0 0 1 -319 -1674 )">
    <path d="M 10.5823351965332 0.93293137319705  C 10.7499139123535 0.76283171123805  10.7486435009765 0.488946377704394  10.5801870544434 0.320614480168217  C 10.4113148449707 0.152724510216274  10.1397472558594 0.15358513521636  9.97260742553715 0.323219585336517  L 5.57047314086914 4.79681959435089  L 1.10687407348631 0.342269445613056  C 0.938001864013651 0.173960805288459  0.666434274902366 0.175240100661028  0.49885557250978 0.344874550781185  C 0.331715742187514 0.51492768479568  0.332986153564456 0.788813018329336  0.501442586669934 0.957144929387027  L 5.24561760131837 5.69123257662255  C 5.25291668945312 5.69858270733181  5.26236391967777 5.70032720102171  5.26968610351566 5.70723539062504  C 5.27139538696292 5.70895662710336  5.27183424560549 5.71111979116591  5.27354352905275 5.71286428485581  C 5.35732132568363 5.79636732872603  5.46690001708982 5.83835144981964  5.57603983642581 5.83835144981964  C 5.68647316284182 5.83835144981964  5.79732225219726 5.79550671724763  5.88112315795896 5.71028243689909  L 10.5823351965332 0.93293137319705  Z " fill-rule="nonzero" fill="#ffffff" stroke="none" transform="matrix(1 0 0 1 319 1674 )" />
    <path d="M 10.5823351965332 0.93293137319705  C 10.7499139123535 0.76283171123805  10.7486435009765 0.488946377704394  10.5801870544434 0.320614480168217  C 10.4113148449707 0.152724510216274  10.1397472558594 0.15358513521636  9.97260742553715 0.323219585336517  L 5.57047314086914 4.79681959435089  L 1.10687407348631 0.342269445613056  C 0.938001864013651 0.173960805288459  0.666434274902366 0.175240100661028  0.49885557250978 0.344874550781185  C 0.331715742187514 0.51492768479568  0.332986153564456 0.788813018329336  0.501442586669934 0.957144929387027  L 5.24561760131837 5.69123257662255  C 5.25291668945312 5.69858270733181  5.26236391967777 5.70032720102171  5.26968610351566 5.70723539062504  C 5.27139538696292 5.70895662710336  5.27183424560549 5.71111979116591  5.27354352905275 5.71286428485581  C 5.35732132568363 5.79636732872603  5.46690001708982 5.83835144981964  5.57603983642581 5.83835144981964  C 5.68647316284182 5.83835144981964  5.79732225219726 5.79550671724763  5.88112315795896 5.71028243689909  L 10.5823351965332 0.93293137319705  Z " stroke-width="2" stroke="#797979" fill="none" transform="matrix(1 0 0 1 319 1674 )" mask="url(#clip39)" />
  </g>
</svg>