<svg xmlns="http://www.w3.org/2000/svg" width="11" height="6"><defs><mask id="a" fill="#fff"><path fill-rule="evenodd" d="M10.582.933A.435.435 0 0 0 10.58.32a.43.43 0 0 0-.607.002L5.57 4.797 1.107.342a.43.43 0 0 0-.608.003A.435.435 0 0 0 .5.957l4.745 4.734c.007.008.016.01.024.016l.004.006a.43.43 0 0 0 .607-.003z"/></mask></defs><path fill="#fff" d="M10.582.933A.435.435 0 0 0 10.58.32a.43.43 0 0 0-.607.002L5.57 4.797 1.107.342a.43.43 0 0 0-.608.003A.435.435 0 0 0 .5.957l4.745 4.734c.007.008.016.01.024.016l.004.006a.43.43 0 0 0 .607-.003z"/><path fill="none" stroke="#797979" stroke-width="2" d="M10.582.933A.435.435 0 0 0 10.58.32a.43.43 0 0 0-.607.002L5.57 4.797 1.107.342a.43.43 0 0 0-.608.003A.435.435 0 0 0 .5.957l4.745 4.734c.007.008.016.01.024.016l.004.006a.43.43 0 0 0 .607-.003z" mask="url(#a)"/></svg>