<?xml version="1.0" encoding="utf-8"?>
<svg version="1.1" xmlns:xlink="http://www.w3.org/1999/xlink" width="110px" height="70px" xmlns="http://www.w3.org/2000/svg">
  <g transform="matrix(1 0 0 1 -1486 -2589 )">
    <path d="M 1496.5 2658.5  L 1595.5 2658.5  L 1595.5 2599.5  L 1590.5 2599.5  L 1590.5 2594.5  L 1585.5 2594.5  L 1585.5 2589.5  L 1486.5 2589.5  L 1486.5 2648.5  L 1491.5 2648.5  L 1491.5 2653.5  L 1496.5 2653.5  L 1496.5 2658.5  Z " fill-rule="nonzero" fill="#ffffff" stroke="none" />
    <path d="M 1496.5 2658.5  L 1595.5 2658.5  L 1595.5 2599.5  L 1590.5 2599.5  L 1590.5 2594.5  L 1585.5 2594.5  L 1585.5 2589.5  L 1486.5 2589.5  L 1486.5 2648.5  L 1491.5 2648.5  L 1491.5 2653.5  L 1496.5 2653.5  L 1496.5 2658.5  Z " stroke-width="1" stroke="#797979" fill="none" />
    <path d="M 1590.5 2600  L 1590.5 2653.5  L 1497 2653.5  M 1585.5 2595  L 1585.5 2648.5  L 1492 2648.5  " stroke-width="1" stroke="#797979" fill="none" />
  </g>
</svg>