<svg xmlns="http://www.w3.org/2000/svg" width="16" height="16" viewBox="0 0 16 16"><path fill="#6d6d6d" fill-rule="evenodd" d="m14 2.5-2 1V2H2v12h12v1a1 1 0 0 1-1 1H1a1 1 0 0 1-1-1V1a1 1 0 0 1 1-1h12a1 1 0 0 1 1 1zm-2.981 3.702q1.17-1.59 1.882-2.23.713-.641 1.389-.641.81 0 1.118.553.164.287.164.698 0 .42-.339.769a1.1 1.1 0 0 1-.82.348q-.297 0-.672-.225-.375-.226-.569-.226-.38 0-.723.39t-1.184 1.65l.195 1.026q.154.79.256 1.297t.226.938q.165.595.328.862.165.266.482.266.287 0 .697-.42.226-.225.687-.83l.43.297a8.1 8.1 0 0 1-1.409 1.733q-.867.82-1.697.82-.698 0-1.148-.574-.257-.308-.452-.841a11 11 0 0 1-.282-.98 25 25 0 0 0-.23-.866l-.144.246q-1.015 1.743-1.487 2.266-.707.78-1.64.78-.534 0-.928-.364a1.17 1.17 0 0 1-.395-.898q0-.44.292-.815.293-.374.815-.374.318 0 .785.226.466.225.61.225.318 0 .548-.282t.908-1.4l.41-.676q-.102-.431-.22-1.056-.119-.626-.241-1.282l-.164-.872q-.175-.943-.554-1.24-.216-.175-.708-.175a15 15 0 0 0-.636.051v-.564a56 56 0 0 0 2.026-.287 53 53 0 0 0 1.471-.246 3.6 3.6 0 0 1 .508.995q.2.585.302 1.24z"/></svg>