<svg xmlns="http://www.w3.org/2000/svg" width="18" height="12"><defs><mask id="a" fill="#fff"><path fill-rule="evenodd" d="M17.387 10.001a1 1 0 0 1-.999 1h-1a1 1 0 0 1-.998-1V1.342c0-.551.447-.999.999-.999h.999c.552 0 .999.448.999 1zm-5.662 1h-.999a1 1 0 0 1-.999-1V3.674c0-.552.448-.999 1-.999h.998c.552 0 1 .447 1 1V10a1 1 0 0 1-.999 1Zm-3.663-1a1 1 0 0 1-.999 1h-.999a1 1 0 0 1-1-1V6.005c0-.552.448-1 1-1h.999c.552 0 .999.448.999 1zm-4.661 0a1 1 0 0 1-1 1h-.999a1 1 0 0 1-.999-1V8.003c0-.552.448-.999 1-.999h.999c.551 0 .999.447.999.999z"/></mask></defs><path d="M17.387 10.001a1 1 0 0 1-.999 1h-1a1 1 0 0 1-.998-1V1.342c0-.551.447-.999.999-.999h.999c.552 0 .999.448.999 1zm-5.662 1h-.999a1 1 0 0 1-.999-1V3.674c0-.552.448-.999 1-.999h.998c.552 0 1 .447 1 1V10a1 1 0 0 1-.999 1Zm-3.663-1a1 1 0 0 1-.999 1h-.999a1 1 0 0 1-1-1V6.005c0-.552.448-1 1-1h.999c.552 0 .999.448.999 1zm-4.661 0a1 1 0 0 1-1 1h-.999a1 1 0 0 1-.999-1V8.003c0-.552.448-.999 1-.999h.999c.551 0 .999.447.999.999z"/><path fill="none" stroke="#797979" stroke-width="2" d="M17.387 10.001a1 1 0 0 1-.999 1h-1a1 1 0 0 1-.998-1V1.342c0-.551.447-.999.999-.999h.999c.552 0 .999.448.999 1z" mask="url(#a)"/><path fill="none" stroke="#797979" stroke-width="2" d="M11.725 11h-.999a1 1 0 0 1-.999-.999V3.674c0-.552.448-.999 1-.999h.998c.552 0 1 .447 1 1V10a1 1 0 0 1-.999 1Z" mask="url(#a)"/><path fill="none" stroke="#797979" stroke-width="2" d="M8.062 10.001a1 1 0 0 1-.999 1h-.999a1 1 0 0 1-1-1V6.005c0-.552.448-1 1-1h.999c.552 0 .999.448.999 1z" mask="url(#a)"/><path fill="none" stroke="#797979" stroke-width="2" d="M3.4 10.001a1 1 0 0 1-.998 1h-1a1 1 0 0 1-.999-1V8.003c0-.552.448-.999 1-.999h.999c.551 0 .999.447.999.999z" mask="url(#a)"/></svg>