<svg xmlns="http://www.w3.org/2000/svg" width="16" height="11"><defs><mask id="a" fill="#fff"><path fill-rule="evenodd" d="M8.253 10.87a.3.3 0 0 1-.214.093.31.31 0 0 1-.221-.093L5.82 8.856a.313.313 0 0 1 .01-.455 3.42 3.42 0 0 1 4.415 0 .315.315 0 0 1 .006.456zm3.51-3.532a.31.31 0 0 1-.433.006 4.895 4.895 0 0 0-6.58 0 .31.31 0 0 1-.433-.006L3.164 6.172a.32.32 0 0 1 0-.459 7.15 7.15 0 0 1 9.743 0 .32.32 0 0 1 .006.459zm2.656-2.683a.3.3 0 0 1-.223.091.3.3 0 0 1-.214-.087 8.63 8.63 0 0 0-11.895 0 .308.308 0 0 1-.434-.004L.503 3.49a.32.32 0 0 1 0-.455 10.89 10.89 0 0 1 15.065 0 .319.319 0 0 1 .006.457z"/></mask></defs><path d="M8.253 10.87a.3.3 0 0 1-.214.093.31.31 0 0 1-.221-.093L5.82 8.856a.313.313 0 0 1 .01-.455 3.42 3.42 0 0 1 4.415 0 .315.315 0 0 1 .006.456zm3.51-3.532a.31.31 0 0 1-.433.006 4.895 4.895 0 0 0-6.58 0 .31.31 0 0 1-.433-.006L3.164 6.172a.32.32 0 0 1 0-.459 7.15 7.15 0 0 1 9.743 0 .32.32 0 0 1 .006.459zm2.656-2.683a.3.3 0 0 1-.223.091.3.3 0 0 1-.214-.087 8.63 8.63 0 0 0-11.895 0 .308.308 0 0 1-.434-.004L.503 3.49a.32.32 0 0 1 0-.455 10.89 10.89 0 0 1 15.065 0 .319.319 0 0 1 .006.457z"/><path fill="none" stroke="#797979" stroke-width="2" d="M8.253 10.87a.3.3 0 0 1-.214.093.31.31 0 0 1-.221-.093L5.82 8.856a.313.313 0 0 1 .01-.455 3.42 3.42 0 0 1 4.415 0 .315.315 0 0 1 .006.456z" mask="url(#a)"/><path fill="none" stroke="#797979" stroke-width="2" d="M11.762 7.338a.31.31 0 0 1-.432.006 4.895 4.895 0 0 0-6.58 0 .31.31 0 0 1-.433-.006L3.164 6.172a.32.32 0 0 1 0-.459 7.15 7.15 0 0 1 9.743 0 .32.32 0 0 1 .006.459z" mask="url(#a)"/><path fill="none" stroke="#797979" stroke-width="2" d="M14.419 4.655a.3.3 0 0 1-.223.091.3.3 0 0 1-.214-.087 8.63 8.63 0 0 0-11.895 0 .308.308 0 0 1-.434-.004L.503 3.49a.32.32 0 0 1 0-.455 10.89 10.89 0 0 1 15.065 0 .319.319 0 0 1 .006.457z" mask="url(#a)"/></svg>