<svg xmlns="http://www.w3.org/2000/svg" width="15" height="11"><path fill="#7f7f7f" d="M1.071 5.5Q2.47 7.611 4.646 8.57l.653-1.155A3.64 3.64 0 0 1 4.16 6.114a3.54 3.54 0 0 1-.41-1.662q0-.99.51-1.841-1.915.957-3.189 2.889m6.714-2.865a.38.38 0 0 0 .117-.278q0-.164-.117-.278a.4.4 0 0 0-.285-.115q-1.047 0-1.795.733-.75.732-.75 1.755 0 .164.118.279a.4.4 0 0 0 .284.114.4.4 0 0 0 .285-.114.38.38 0 0 0 .117-.279q0-.703.51-1.203T7.5 2.75a.4.4 0 0 0 .285-.115M10.806.573q.134.082.134.22a.2.2 0 0 1-.008.075q-.887 1.546-2.645 4.64a2558 2558 0 0 1-2.637 4.633l-.41.728a.26.26 0 0 1-.234.131q-.1 0-1.122-.573a.26.26 0 0 1-.134-.23q0-.098.368-.711A8.7 8.7 0 0 1 1.913 8.07 9.8 9.8 0 0 1 .167 6.065 1 1 0 0 1 0 5.5q0-.311.167-.565Q1.447 3.012 3.348 1.9A8.07 8.07 0 0 1 7.5.786q.745 0 1.507.139L9.459.13A.26.26 0 0 1 9.693 0q.042 0 .15.05a6 6 0 0 1 .536.277q.126.075.264.152.139.078.163.094m.377 3.192q.067.368.067.687 0 1.138-.661 2.075a3.68 3.68 0 0 1-1.75 1.347zm3.65 1.17Q15 5.214 15 5.5q0 .287-.167.565-.327.524-.913 1.186a9 9 0 0 1-2.909 2.186 8.15 8.15 0 0 1-3.511.777l.62-1.08a7.05 7.05 0 0 0 3.285-1.121A8.5 8.5 0 0 0 13.929 5.5a8.5 8.5 0 0 0-2.36-2.406l.526-.917q.796.525 1.528 1.252.732.729 1.21 1.506"/></svg>