<?xml version="1.0" encoding="utf-8"?>
<svg version="1.1" xmlns:xlink="http://www.w3.org/1999/xlink" width="44px" height="44px" xmlns="http://www.w3.org/2000/svg">
  <defs>
    <filter x="1524px" y="62px" width="44px" height="44px" filterUnits="userSpaceOnUse" id="filter40">
      <feOffset dx="2" dy="2" in="SourceAlpha" result="shadowOffsetInner" />
      <feGaussianBlur stdDeviation="2.5" in="shadowOffsetInner" result="shadowGaussian" />
      <feComposite in2="shadowGaussian" operator="atop" in="SourceAlpha" result="shadowComposite" />
      <feColorMatrix type="matrix" values="0 0 0 0 0.850980392156863  0 0 0 0 0  0 0 0 0 0.105882352941176  0 0 0 0.349019607843137 0  " in="shadowComposite" />
    </filter>
    <g id="widget41">
      <path d="M 1544 65  C 1553.52 65  1561 72.48  1561 82  C 1561 91.52  1553.52 99  1544 99  C 1534.48 99  1527 91.52  1527 82  C 1527 72.48  1534.48 65  1544 65  Z " fill-rule="nonzero" fill="#ffff80" stroke="none" />
      <path d="M 1544 65.5  C 1553.24 65.5  1560.5 72.76  1560.5 82  C 1560.5 91.24  1553.24 98.5  1544 98.5  C 1534.76 98.5  1527.5 91.24  1527.5 82  C 1527.5 72.76  1534.76 65.5  1544 65.5  Z " stroke-width="1" stroke="#95f204" fill="none" />
    </g>
  </defs>
  <g transform="matrix(1 0 0 1 -1524 -62 )">
    <use xlink:href="#widget41" filter="url(#filter40)" />
    <use xlink:href="#widget41" />
  </g>
</svg>