<?xml version="1.0" encoding="utf-8"?>
<svg version="1.1" xmlns:xlink="http://www.w3.org/1999/xlink" width="12px" height="12px" viewBox="434 387  12 12" xmlns="http://www.w3.org/2000/svg">
  <path d="M 440 387  C 443.36 387  446 389.64  446 393  C 446 396.36  443.36 399  440 399  C 436.64 399  434 396.36  434 393  C 434 389.64  436.64 387  440 387  Z " fill-rule="nonzero" fill="#f0f0f0" stroke="none" />
  <path d="M 440 387.5  C 443.08 387.5  445.5 389.92  445.5 393  C 445.5 396.08  443.08 398.5  440 398.5  C 436.92 398.5  434.5 396.08  434.5 393  C 434.5 389.92  436.92 387.5  440 387.5  Z " stroke-width="1" stroke="#797979" fill="none" />
  <path d="M 440 396  C 438.32 396  437 394.68  437 393  C 437 391.32  438.32 390  440 390  C 441.68 390  443 391.32  443 393  C 443 394.68  441.68 396  440 396  " fill-rule="nonzero" fill="#797979" stroke="none" />
</svg>