<svg xmlns="http://www.w3.org/2000/svg" width="13" height="8"><defs><mask id="a" fill="#fff"><path fill-rule="evenodd" d="M12.506 1.244a.634.634 0 0 0-.002-.817.466.466 0 0 0-.718.004L6.583 6.396 1.308.456A.466.466 0 0 0 .59.46a.634.634 0 0 0 .003.816l5.606 6.312c.009.01.02.012.029.022l.004.007a.48.48 0 0 0 .358.167c.13 0 .261-.057.36-.17z"/></mask></defs><path fill="#fff" d="M12.506 1.244a.634.634 0 0 0-.002-.817.466.466 0 0 0-.718.004L6.583 6.396 1.308.456A.466.466 0 0 0 .59.46a.634.634 0 0 0 .003.816l5.606 6.312c.009.01.02.012.029.022l.004.007a.48.48 0 0 0 .358.167c.13 0 .261-.057.36-.17z"/><path fill="none" stroke="#d7d7d7" stroke-width="2" d="M12.506 1.244a.634.634 0 0 0-.002-.817.466.466 0 0 0-.718.004L6.583 6.396 1.308.456A.466.466 0 0 0 .59.46a.634.634 0 0 0 .003.816l5.606 6.312c.009.01.02.012.029.022l.004.007a.48.48 0 0 0 .358.167c.13 0 .261-.057.36-.17z" mask="url(#a)"/></svg>