<?xml version="1.0" encoding="utf-8"?>
<svg version="1.1" xmlns:xlink="http://www.w3.org/1999/xlink" width="13px" height="8px" xmlns="http://www.w3.org/2000/svg">
  <defs>
    <mask fill="white" id="clip50">
      <path d="M 12.5063961413574 1.24390849759607  C 12.7044437145996 1.0171089483174  12.7029423193359 0.651928503605859  12.5038574279785 0.427485973557623  C 12.3042811804199 0.203632680288365  11.9833376660156 0.204780180288481  11.7858087756348 0.430959447115356  L 6.58328643920898 6.39575945913452  L 1.30812390502928 0.456359260817408  C 1.10854765747068 0.231947740384612  0.787604143066433 0.233653467548038  0.589556585693377 0.459832734374913  C 0.392027695312517 0.68657024639424  0.393529090576175 1.05175069110578  0.592613966064467 1.2761932391827  L 6.19936625610353 7.5883101021634  C 6.20799245117187 7.59811027644241  6.21915735961918 7.60043626802894  6.22781084960941 7.60964718750006  C 6.22983091186526 7.61194216947115  6.23034956298831 7.61482638822122  6.23236962524416 7.61715237980775  C 6.3313797485352 7.72848977163471  6.46088183837888 7.78446859975952  6.5898652612305 7.78446859975952  C 6.7203773742676 7.78446859975952  6.85138084350585 7.72734228966351  6.95041827758787 7.61370991586546  L 12.5063961413574 1.24390849759607  Z " fill-rule="evenodd" />
    </mask>
  </defs>
  <g transform="matrix(1 0 0 1 -340 -150 )">
    <path d="M 12.5063961413574 1.24390849759607  C 12.7044437145996 1.0171089483174  12.7029423193359 0.651928503605859  12.5038574279785 0.427485973557623  C 12.3042811804199 0.203632680288365  11.9833376660156 0.204780180288481  11.7858087756348 0.430959447115356  L 6.58328643920898 6.39575945913452  L 1.30812390502928 0.456359260817408  C 1.10854765747068 0.231947740384612  0.787604143066433 0.233653467548038  0.589556585693377 0.459832734374913  C 0.392027695312517 0.68657024639424  0.393529090576175 1.05175069110578  0.592613966064467 1.2761932391827  L 6.19936625610353 7.5883101021634  C 6.20799245117187 7.59811027644241  6.21915735961918 7.60043626802894  6.22781084960941 7.60964718750006  C 6.22983091186526 7.61194216947115  6.23034956298831 7.61482638822122  6.23236962524416 7.61715237980775  C 6.3313797485352 7.72848977163471  6.46088183837888 7.78446859975952  6.5898652612305 7.78446859975952  C 6.7203773742676 7.78446859975952  6.85138084350585 7.72734228966351  6.95041827758787 7.61370991586546  L 12.5063961413574 1.24390849759607  Z " fill-rule="nonzero" fill="#ffffff" stroke="none" transform="matrix(1 0 0 1 340 150 )" />
    <path d="M 12.5063961413574 1.24390849759607  C 12.7044437145996 1.0171089483174  12.7029423193359 0.651928503605859  12.5038574279785 0.427485973557623  C 12.3042811804199 0.203632680288365  11.9833376660156 0.204780180288481  11.7858087756348 0.430959447115356  L 6.58328643920898 6.39575945913452  L 1.30812390502928 0.456359260817408  C 1.10854765747068 0.231947740384612  0.787604143066433 0.233653467548038  0.589556585693377 0.459832734374913  C 0.392027695312517 0.68657024639424  0.393529090576175 1.05175069110578  0.592613966064467 1.2761932391827  L 6.19936625610353 7.5883101021634  C 6.20799245117187 7.59811027644241  6.21915735961918 7.60043626802894  6.22781084960941 7.60964718750006  C 6.22983091186526 7.61194216947115  6.23034956298831 7.61482638822122  6.23236962524416 7.61715237980775  C 6.3313797485352 7.72848977163471  6.46088183837888 7.78446859975952  6.5898652612305 7.78446859975952  C 6.7203773742676 7.78446859975952  6.85138084350585 7.72734228966351  6.95041827758787 7.61370991586546  L 12.5063961413574 1.24390849759607  Z " stroke-width="2" stroke="#d7d7d7" fill="none" transform="matrix(1 0 0 1 340 150 )" mask="url(#clip50)" />
  </g>
</svg>