<svg xmlns="http://www.w3.org/2000/svg" width="19" height="12"><defs><mask id="a" fill="#fff"><path fill-rule="evenodd" d="M18.279 1.866A.97.97 0 0 0 18.275.64a.67.67 0 0 0-1.05.005L9.622 9.594 1.912.684A.67.67 0 0 0 .862.69a.97.97 0 0 0 .004 1.224l8.195 9.468c.012.015.029.019.041.032l.007.012a.7.7 0 0 0 .522.25c.191 0 .383-.085.527-.255z"/></mask></defs><path fill="#fff" d="M18.279 1.866A.97.97 0 0 0 18.275.64a.67.67 0 0 0-1.05.005L9.622 9.594 1.912.684A.67.67 0 0 0 .862.69a.97.97 0 0 0 .004 1.224l8.195 9.468c.012.015.029.019.041.032l.007.012a.7.7 0 0 0 .522.25c.191 0 .383-.085.527-.255z"/><path fill="none" stroke="#fff" stroke-width="2" d="M18.279 1.866A.97.97 0 0 0 18.275.64a.67.67 0 0 0-1.05.005L9.622 9.594 1.912.684A.67.67 0 0 0 .862.69a.97.97 0 0 0 .004 1.224l8.195 9.468c.012.015.029.019.041.032l.007.012a.7.7 0 0 0 .522.25c.191 0 .383-.085.527-.255z" mask="url(#a)"/></svg>