<?xml version="1.0" encoding="utf-8"?>
<svg version="1.1" xmlns:xlink="http://www.w3.org/1999/xlink" width="19px" height="12px" xmlns="http://www.w3.org/2000/svg">
  <defs>
    <mask fill="white" id="clip60">
      <path d="M 18.2785789758301 1.8658627463941  C 18.5680331213379 1.5256634224761  18.565838774414 0.977892755408789  18.274868548584 0.641228960336434  C 17.9831801867676 0.305449020432548  17.5141088964843 0.307170270432721  17.2254128259278 0.646439170673034  L 9.62172633422852 9.59363918870179  L 1.91187339965818 0.684538891226111  C 1.62018503784176 0.347921610576918  1.15111374755863 0.350480201322057  0.861659625244166 0.68974910156237  C 0.572963554687525 1.02985536959136  0.575157901611333 1.57762603665867  0.866128104248067 1.91428985877405  L 9.06061222045901 11.3824651532451  C 9.07321973632812 11.3971654146636  9.08953767944342 11.4006544020434  9.10218508789068 11.4144707812501  C 9.10513748657231 11.4179132542067  9.10589551513675 11.4222395823318  9.10884791381839 11.4257285697116  C 9.25355501708991 11.5927346574521  9.44282730224605 11.6767028996393  9.63134153564458 11.6767028996393  C 9.82209000854495 11.6767028996393  10.0135566174316 11.5910134344953  10.1583036364746 11.4205648737982  L 18.2785789758301 1.8658627463941  Z " fill-rule="evenodd" />
    </mask>
  </defs>
  <g transform="matrix(1 0 0 1 -334 -79 )">
    <path d="M 18.2785789758301 1.8658627463941  C 18.5680331213379 1.5256634224761  18.565838774414 0.977892755408789  18.274868548584 0.641228960336434  C 17.9831801867676 0.305449020432548  17.5141088964843 0.307170270432721  17.2254128259278 0.646439170673034  L 9.62172633422852 9.59363918870179  L 1.91187339965818 0.684538891226111  C 1.62018503784176 0.347921610576918  1.15111374755863 0.350480201322057  0.861659625244166 0.68974910156237  C 0.572963554687525 1.02985536959136  0.575157901611333 1.57762603665867  0.866128104248067 1.91428985877405  L 9.06061222045901 11.3824651532451  C 9.07321973632812 11.3971654146636  9.08953767944342 11.4006544020434  9.10218508789068 11.4144707812501  C 9.10513748657231 11.4179132542067  9.10589551513675 11.4222395823318  9.10884791381839 11.4257285697116  C 9.25355501708991 11.5927346574521  9.44282730224605 11.6767028996393  9.63134153564458 11.6767028996393  C 9.82209000854495 11.6767028996393  10.0135566174316 11.5910134344953  10.1583036364746 11.4205648737982  L 18.2785789758301 1.8658627463941  Z " fill-rule="nonzero" fill="#ffffff" stroke="none" transform="matrix(1 0 0 1 334 79 )" />
    <path d="M 18.2785789758301 1.8658627463941  C 18.5680331213379 1.5256634224761  18.565838774414 0.977892755408789  18.274868548584 0.641228960336434  C 17.9831801867676 0.305449020432548  17.5141088964843 0.307170270432721  17.2254128259278 0.646439170673034  L 9.62172633422852 9.59363918870179  L 1.91187339965818 0.684538891226111  C 1.62018503784176 0.347921610576918  1.15111374755863 0.350480201322057  0.861659625244166 0.68974910156237  C 0.572963554687525 1.02985536959136  0.575157901611333 1.57762603665867  0.866128104248067 1.91428985877405  L 9.06061222045901 11.3824651532451  C 9.07321973632812 11.3971654146636  9.08953767944342 11.4006544020434  9.10218508789068 11.4144707812501  C 9.10513748657231 11.4179132542067  9.10589551513675 11.4222395823318  9.10884791381839 11.4257285697116  C 9.25355501708991 11.5927346574521  9.44282730224605 11.6767028996393  9.63134153564458 11.6767028996393  C 9.82209000854495 11.6767028996393  10.0135566174316 11.5910134344953  10.1583036364746 11.4205648737982  L 18.2785789758301 1.8658627463941  Z " stroke-width="2" stroke="#ffffff" fill="none" transform="matrix(1 0 0 1 334 79 )" mask="url(#clip60)" />
  </g>
</svg>