<?xml version="1.0" encoding="utf-8"?>
<svg version="1.1" xmlns:xlink="http://www.w3.org/1999/xlink" width="22px" height="22px" xmlns="http://www.w3.org/2000/svg">
  <g transform="matrix(1 0 0 1 -248 -3266 )">
    <path d="M 259 3266  C 265.16 3266  270 3270.84  270 3277  C 270 3283.16  265.16 3288  259 3288  C 252.84 3288  248 3283.16  248 3277  C 248 3270.84  252.84 3266  259 3266  Z " fill-rule="nonzero" fill="#ffffff" stroke="none" />
    <path d="M 259 3266.5  C 264.88 3266.5  269.5 3271.12  269.5 3277  C 269.5 3282.88  264.88 3287.5  259 3287.5  C 253.12 3287.5  248.5 3282.88  248.5 3277  C 248.5 3271.12  253.12 3266.5  259 3266.5  Z " stroke-width="1" stroke="#d9001b" fill="none" />
  </g>
</svg>