<?xml version="1.0" encoding="utf-8"?>
<svg version="1.1" xmlns:xlink="http://www.w3.org/1999/xlink" width="104px" height="97px" xmlns="http://www.w3.org/2000/svg">
  <g transform="matrix(1 0 0 1 -26 -1229 )">
    <path d="M 27 1233  A 3 3 0 0 1 30 1230 L 126 1230  A 3 3 0 0 1 129 1233 L 129 1322  A 3 3 0 0 1 126 1325 L 30 1325  A 3 3 0 0 1 27 1322 L 27 1233  Z " fill-rule="nonzero" fill="#000000" stroke="none" fill-opacity="0.0196078431372549" />
    <path d="M 26.5 1233  A 3.5 3.5 0 0 1 30 1229.5 L 126 1229.5  A 3.5 3.5 0 0 1 129.5 1233 L 129.5 1322  A 3.5 3.5 0 0 1 126 1325.5 L 30 1325.5  A 3.5 3.5 0 0 1 26.5 1322 L 26.5 1233  Z " stroke-width="1" stroke-dasharray="9,4" stroke="#000000" fill="none" stroke-opacity="0.149019607843137" stroke-dashoffset="0.5" />
  </g>
</svg>